<?xml version="1.0" encoding="utf-8"?>
<!-- Generator: Adobe Illustrator 22.1.0, SVG Export Plug-In . SVG Version: 6.00 Build 0)  -->
<svg version="1.1" id="Layer_1" xmlns="http://www.w3.org/2000/svg" xmlns:xlink="http://www.w3.org/1999/xlink" x="0px" y="0px"
	 viewBox="0 0 512 512" style="enable-background:new 0 0 512 512;" xml:space="preserve">
<path d="M491.8,156.4c-19.5-45.9-51.9-85-92.8-112.6C358.2,16.2,308.9,0,256,0c-35.3,0-68.9,7.2-99.6,20.2
	c-45.9,19.5-85,51.9-112.6,92.8C16.2,153.8,0,203.1,0,256c0,35.3,7.2,68.9,20.2,99.6c19.5,45.9,51.9,85,92.8,112.6
	C153.8,495.8,203.1,512,256,512c35.3,0,68.9-7.2,99.6-20.2c45.9-19.5,85-51.9,112.6-92.8C495.8,358.2,512,308.9,512,256
	C512,220.7,504.8,187.1,491.8,156.4z M460.4,342.3c-16.9,39.8-45,73.7-80.5,97.7c-35.4,24-78,37.9-123.9,37.9
	c-30.6,0-59.7-6.2-86.3-17.5c-39.8-16.9-73.7-45-97.7-80.5c-24-35.4-37.9-78-37.9-123.9c0-30.6,6.2-59.7,17.5-86.3
	c16.9-39.8,45-73.7,80.5-97.7c35.4-24,78-37.9,123.9-37.9c30.6,0,59.7,6.2,86.3,17.5c39.8,16.8,73.7,45,97.7,80.5
	c24,35.4,37.9,78,37.9,123.9C477.9,286.6,471.6,315.7,460.4,342.3z"/>
<path d="M389.6,239.3H122.4c-9.2,0-16.7,7.5-16.7,16.7c0,9.2,7.5,16.7,16.7,16.7h267.2c9.2,0,16.7-7.5,16.7-16.7
	S398.8,239.3,389.6,239.3z"/>
</svg>
