<?xml version="1.0" encoding="utf-8"?>
<!-- Generator: Adobe Illustrator 22.1.0, SVG Export Plug-In . SVG Version: 6.00 Build 0)  -->
<svg version="1.1" id="Layer_1" xmlns="http://www.w3.org/2000/svg" xmlns:xlink="http://www.w3.org/1999/xlink" x="0px" y="0px"
	 viewBox="0 0 512 512" style="enable-background:new 0 0 512 512;" xml:space="preserve">
<g>
	<path id="Close" d="M292.8,256.4L501.7,48.6c10-9.9,10-26,0-35.9c-10-9.9-26.2-9.9-36.2,0L256.8,220.3L46.1,9.6
		c-10-10-26.2-10-36.2,0c-10,10-10,26.3,0,36.3l210.5,210.5L9.2,466.6c-10,9.9-10,26,0,35.9c10,9.9,26.2,9.9,36.2,0l211.1-209.9
		l209.8,209.9c10,10,26.2,10,36.2,0c10-10,10-26.3,0-36.3L292.8,256.4z"/>
</g>
</svg>
