<svg xmlns="http://www.w3.org/2000/svg" viewBox="0 0 512 512"><path d="M374.654 0c-30.08 0-54.552 24.472-54.552 54.551v85.86a54.199 54.199 0 00-24.551-5.86c-15.558 0-29.604 6.557-39.552 17.04-9.947-10.483-23.994-17.04-39.552-17.04a54.199 54.199 0 00-24.551 5.86v-85.86C191.897 24.472 167.426 0 137.346 0c-30.079 0-54.551 24.472-54.551 54.551v235.905l68.975-68.975c4.638-4.637 10.803-7.191 17.36-7.191s12.723 2.554 17.36 7.191c4.638 4.637 7.191 10.802 7.191 17.36a24.39 24.39 0 01-7.191 17.36l-102.7 102.7 1.217 7.567c6.46 40.196 27.103 77.026 58.126 103.705C174.498 497.146 214.581 512 256 512c95.506 0 173.205-77.7 173.205-173.206V54.551C429.205 24.472 404.733 0 374.654 0zM162.087 184.753c-11.902 1.526-22.907 6.892-31.53 15.515l-17.762 17.761V54.551c0-13.538 11.014-24.551 24.551-24.551 13.538 0 24.552 11.014 24.552 24.551 0 0 .227 129.723.189 130.202zM271 189.102c0-13.537 11.014-24.551 24.552-24.551 13.537 0 24.551 11.014 24.551 24.551v67.917c0 13.538-11.014 24.552-24.551 24.552-13.538 0-24.552-11.014-24.552-24.552v-67.917zm-79.103.147v-.146c0-13.538 11.014-24.551 24.551-24.551 13.538 0 24.552 11.014 24.552 24.551v67.917c0 13.538-11.014 24.552-24.552 24.552a24.49 24.49 0 01-10.512-2.388l1.767-1.767c10.304-10.304 15.979-24.003 15.979-38.574 0-14.571-5.675-28.271-15.979-38.574a54.541 54.541 0 00-15.806-11.02zm207.309 149.545C399.205 417.758 334.964 482 256 482c-34.244 0-67.382-12.278-93.307-34.573-23.742-20.417-40.132-48.008-46.676-78.326l68.147-68.147c9.232 6.771 20.516 10.617 32.284 10.617 15.558 0 29.604-6.557 39.552-17.04 9.947 10.483 23.994 17.04 39.552 17.04 30.079 0 54.551-24.472 54.551-54.552V54.551c0-13.538 11.014-24.551 24.552-24.551 13.537 0 24.551 11.014 24.551 24.551v284.243z"/></svg>